<svg width="25" height="25" viewBox="0 0 25 25" fill="none" xmlns="http://www.w3.org/2000/svg">
<path fill-rule="evenodd" clip-rule="evenodd" d="M21.6504 2.82709H5.38956C4.20285 2.82709 3.23738 3.70478 3.23738 4.78361V6.30537H2.52002C2.1238 6.30537 1.80261 6.59736 1.80261 6.95752C1.80261 7.31767 2.1238 7.6097 2.52002 7.6097H3.23742V10.2184H2.52002C2.1238 10.2184 1.80261 10.5104 1.80261 10.8706C1.80261 11.2307 2.1238 11.5228 2.52002 11.5228H3.23742V14.1315H2.52002C2.1238 14.1314 1.80261 14.4235 1.80261 14.7836C1.80261 15.1438 2.1238 15.4358 2.52002 15.4358H3.23742V18.0445H2.52002C2.1238 18.0445 1.80261 18.3365 1.80261 18.6967C1.80261 19.0569 2.1238 19.3488 2.52002 19.3488H3.23742V20.8706C3.23738 21.9494 4.20285 22.8271 5.38956 22.8271H21.6504C22.8371 22.8271 23.8026 21.9494 23.8026 20.8706V4.78361C23.8026 3.70478 22.8371 2.82709 21.6504 2.82709ZM7.54173 21.5228H5.38956C4.99399 21.5228 4.67215 21.2302 4.67215 20.8706V19.3488H5.38956C5.78573 19.3488 6.10696 19.0569 6.10696 18.6967C6.10696 18.3365 5.78577 18.0445 5.38956 18.0445H4.67219V15.4358H5.3896C5.78577 15.4358 6.10701 15.1438 6.10701 14.7836C6.10701 14.4234 5.78582 14.1314 5.3896 14.1314H4.67219V11.5227H5.3896C5.78577 11.5227 6.10701 11.2307 6.10701 10.8705C6.10701 10.5103 5.78582 10.2183 5.3896 10.2183H4.67219V7.60959H5.3896C5.78577 7.60959 6.10701 7.3176 6.10701 6.9574C6.10701 6.5972 5.78582 6.30521 5.3896 6.30521H4.67219V4.78361C4.67219 4.424 4.99403 4.13142 5.3896 4.13142H7.54178V21.5228H7.54173ZM22.3678 20.8706C22.3678 21.2302 22.046 21.5228 21.6504 21.5228H8.97655V4.13142H21.6504C22.046 4.13142 22.3678 4.424 22.3678 4.78361V20.8706ZM20.1296 11.5645C19.5707 10.9997 18.7969 10.6887 17.951 10.6887C17.0501 10.6887 16.2651 11.0503 15.6722 11.7364C15.0792 11.0503 14.2942 10.6887 13.3934 10.6887C12.5474 10.6887 11.7736 10.9997 11.2147 11.5645C10.6875 12.0972 10.3972 12.8077 10.3972 13.565C10.3972 15.198 11.7646 16.2058 13.6573 17.6008L13.6575 17.6009C14.1237 17.9445 14.6523 18.3341 15.2053 18.765C15.3397 18.8697 15.5059 18.922 15.6722 18.922C15.8385 18.922 16.0047 18.8696 16.1391 18.765C16.6921 18.3341 17.2206 17.9445 17.6869 17.6009C19.5797 16.2059 20.9472 15.198 20.9472 13.565C20.9472 12.8077 20.6568 12.0972 20.1296 11.5645ZM16.7833 16.5877C16.4418 16.8393 16.0674 17.1153 15.6722 17.4156C15.2775 17.1157 14.9036 16.8402 14.5625 16.5888L14.561 16.5877C12.7179 15.2293 11.8319 14.5334 11.8319 13.565C11.8319 12.803 12.3791 11.9931 13.3934 11.9931C14.5475 11.9931 14.9629 13.2353 14.9823 13.2953C15.07 13.5754 15.3511 13.7705 15.6717 13.7705C15.9934 13.7705 16.2753 13.5774 16.3621 13.2958C16.3791 13.2427 16.7936 11.9931 17.9511 11.9931C18.9653 11.9931 19.5125 12.803 19.5125 13.565C19.5124 14.5333 18.6264 15.2293 16.7833 16.5877ZM11.1287 6.30536H20.2156C20.6118 6.30536 20.933 6.59735 20.933 6.95755C20.933 7.31774 20.6118 7.60973 20.2156 7.60973H11.1287C10.7324 7.60973 10.4113 7.31774 10.4113 6.95755C10.4113 6.59735 10.7325 6.30536 11.1287 6.30536Z" fill="#099BEE"/>
</svg>
