<svg width="25" height="25" viewBox="0 0 25 25" fill="none" xmlns="http://www.w3.org/2000/svg">
<path fill-rule="evenodd" clip-rule="evenodd" d="M18.3093 3.65124H20.6665C21.9683 3.65124 23.0236 4.70657 23.0236 6.00838V20.937C23.0236 22.2388 21.9683 23.2941 20.6665 23.2941H3.38076C2.07895 23.2941 1.02362 22.2388 1.02362 20.937V6.00838C1.02362 4.70657 2.07895 3.65124 3.38076 3.65124H5.7379V2.07983C5.7379 1.64587 6.08972 1.2941 6.52363 1.2941C6.95754 1.2941 7.30932 1.64587 7.30932 2.07983V3.65124H16.7379V2.07983C16.7379 1.64587 17.0897 1.2941 17.5236 1.2941C17.9576 1.2941 18.3093 1.64587 18.3093 2.07983V3.65124ZM20.6664 21.7227C21.1004 21.7227 21.4522 21.3709 21.4522 20.937V10.7227H2.59503V20.937C2.59503 21.3709 2.94681 21.7227 3.38076 21.7227H20.6664ZM2.59503 9.15125H21.4522H21.4523V6.00838C21.4523 5.57443 21.1005 5.22265 20.6665 5.22265H18.3094V6.79406C18.3094 7.22802 17.9576 7.57979 17.5237 7.57979C17.0897 7.57979 16.7379 7.22802 16.7379 6.79406V5.22265H7.30936V6.79406C7.30936 7.22802 6.95759 7.57979 6.52363 7.57979C6.08968 7.57979 5.7379 7.22802 5.7379 6.79406V5.22265H3.38076C2.94681 5.22265 2.59503 5.57443 2.59503 6.00838V9.15125ZM5.73788 12.2941H7.30929C7.74324 12.2941 8.09502 12.6458 8.09502 13.0798C8.09502 13.5138 7.74324 13.8655 7.30929 13.8655H5.73788C5.30392 13.8655 4.95215 13.5138 4.95215 13.0798C4.95215 12.6458 5.30392 12.2941 5.73788 12.2941ZM12.8094 12.2941H11.2379C10.804 12.2941 10.4522 12.6458 10.4522 13.0798C10.4522 13.5138 10.804 13.8655 11.2379 13.8655H12.8094C13.2433 13.8655 13.5951 13.5138 13.5951 13.0798C13.5951 12.6458 13.2433 12.2941 12.8094 12.2941ZM16.7379 12.2941H18.3094C18.7433 12.2941 19.095 12.6458 19.0951 13.0798C19.0951 13.5138 18.7433 13.8655 18.3094 13.8655H16.7379C16.304 13.8655 15.9522 13.5138 15.9522 13.0798C15.9522 12.6458 16.304 12.2941 16.7379 12.2941ZM7.30929 15.437H5.73788C5.30392 15.437 4.95215 15.7887 4.95215 16.2227C4.95215 16.6566 5.30392 17.0084 5.73788 17.0084H7.30929C7.74324 17.0084 8.09502 16.6566 8.09502 16.2227C8.09502 15.7887 7.74324 15.437 7.30929 15.437ZM11.2379 15.437H12.8094C13.2433 15.437 13.5951 15.7887 13.5951 16.2227C13.5951 16.6566 13.2433 17.0084 12.8094 17.0084H11.2379C10.804 17.0084 10.4522 16.6566 10.4522 16.2227C10.4522 15.7887 10.804 15.437 11.2379 15.437ZM18.3094 15.437H16.7379C16.304 15.437 15.9522 15.7887 15.9522 16.2227C15.9522 16.6566 16.304 17.0084 16.7379 17.0084H18.3094C18.7433 17.0084 19.0951 16.6566 19.0951 16.2227C19.095 15.7887 18.7433 15.437 18.3094 15.437ZM5.73788 18.5798H7.30929C7.74324 18.5798 8.09502 18.9315 8.09502 19.3655C8.09502 19.7994 7.74324 20.1512 7.30929 20.1512H5.73788C5.30392 20.1512 4.95215 19.7995 4.95215 19.3655C4.95215 18.9316 5.30392 18.5798 5.73788 18.5798ZM12.8094 18.5798H11.2379C10.804 18.5798 10.4522 18.9316 10.4522 19.3655C10.4522 19.7995 10.804 20.1513 11.2379 20.1513H12.8094C13.2433 20.1513 13.5951 19.7995 13.5951 19.3655C13.5951 18.9316 13.2433 18.5798 12.8094 18.5798ZM16.7379 18.5798H18.3094C18.7433 18.5798 19.0951 18.9316 19.0951 19.3655C19.0951 19.7995 18.7433 20.1513 18.3094 20.1513H16.7379C16.304 20.1513 15.9522 19.7995 15.9522 19.3655C15.9522 18.9316 16.304 18.5798 16.7379 18.5798Z" fill="#099BEE"/>
</svg>
