<svg width="25" height="25" viewBox="0 0 25 25" fill="none" xmlns="http://www.w3.org/2000/svg">
<path fill-rule="evenodd" clip-rule="evenodd" d="M4.68615 6.64575C3.17327 6.64575 1.93585 7.88718 1.93585 9.40006C1.93585 10.9131 3.17327 12.1558 4.68615 12.1558C6.19904 12.1558 7.44046 10.9131 7.44046 9.40006C7.44046 7.88718 6.19904 6.64575 4.68615 6.64575ZM9.43906 7.33715C9.08799 7.3714 8.81726 7.67037 8.81762 8.02291V10.7787V10.7816C8.81762 11.1591 9.12843 11.4699 9.50611 11.4699H9.5103H21.9021C22.2789 11.4686 22.5881 11.1582 22.5881 10.7814C22.5881 10.7805 22.5881 10.7796 22.5881 10.7787V8.02291C22.5866 7.64724 22.2778 7.33843 21.9021 7.33715H9.5103C9.48661 7.33588 9.46275 7.33588 9.43906 7.33715ZM4.68615 8.02291C5.45499 8.02291 6.06331 8.63123 6.06331 9.40006C6.06331 10.1691 5.45499 10.7787 4.68615 10.7787C3.91732 10.7787 3.30772 10.1691 3.30772 9.40006C3.30772 8.63123 3.91732 8.02291 4.68615 8.02291ZM10.1962 8.71431H21.2162V10.0927H10.1962V8.71431ZM4.68615 13.533C3.17327 13.533 1.93585 14.7757 1.93585 16.2886C1.93585 17.8016 3.17327 19.0431 4.68615 19.0431C6.19904 19.0431 7.44046 17.8016 7.44046 16.2886C7.44046 14.7757 6.19904 13.533 4.68615 13.533ZM9.5103 14.2189C9.50884 14.2189 9.50757 14.2189 9.50611 14.2189C9.12843 14.2189 8.81762 14.5296 8.81762 14.9072V14.9114V17.6659C8.81908 18.0425 9.12934 18.3517 9.50611 18.3517H9.5103H21.9021C22.2778 18.3504 22.5866 18.0416 22.5881 17.6659V14.9114C22.5881 14.9101 22.5881 14.9087 22.5881 14.9072C22.5881 14.5306 22.2789 14.2202 21.9021 14.2189H9.5103ZM4.68615 14.9114C5.45499 14.9114 6.06331 15.5197 6.06331 16.2886C6.06331 17.0576 5.45499 17.6659 4.68615 17.6659C3.91732 17.6659 3.30772 17.0576 3.30772 16.2886C3.30772 15.5197 3.91732 14.9114 4.68615 14.9114ZM10.1962 15.5974H21.2162V16.9745H10.1962V15.5974Z" fill="#099BEE"/>
</svg>
