<svg width="24" height="25" viewBox="0 0 24 25" fill="none" xmlns="http://www.w3.org/2000/svg">
<path d="M18.6458 8.62756L20.9833 5.5109C21.0855 5.37471 21.1477 5.21277 21.1629 5.04322C21.1782 4.87367 21.146 4.70321 21.0699 4.55095C20.9937 4.39869 20.8767 4.27063 20.7319 4.18113C20.5871 4.09164 20.4202 4.04423 20.25 4.04423H9.24998C9.24998 3.80112 9.1534 3.56796 8.98149 3.39605C8.80959 3.22414 8.57643 3.12756 8.33331 3.12756C8.0902 3.12756 7.85704 3.22414 7.68513 3.39605C7.51322 3.56796 7.41665 3.80112 7.41665 4.04423V19.6276H6.49998C6.25686 19.6276 6.02371 19.7241 5.8518 19.896C5.67989 20.068 5.58331 20.3011 5.58331 20.5442C5.58331 20.7873 5.67989 21.0205 5.8518 21.1924C6.02371 21.3643 6.25686 21.4609 6.49998 21.4609H10.1666C10.4098 21.4609 10.6429 21.3643 10.8148 21.1924C10.9867 21.0205 11.0833 20.7873 11.0833 20.5442C11.0833 20.3011 10.9867 20.068 10.8148 19.896C10.6429 19.7241 10.4098 19.6276 10.1666 19.6276H9.24998V13.2109H20.25C20.4202 13.2109 20.5871 13.1635 20.7319 13.074C20.8767 12.9845 20.9937 12.8564 21.0699 12.7042C21.146 12.5519 21.1782 12.3815 21.1629 12.2119C21.1477 12.0424 21.0855 11.8804 20.9833 11.7442L18.6458 8.62756ZM16.7666 9.17756L18.4166 11.3776H9.24998V5.87756H18.4166L16.7666 8.07756C16.6475 8.23618 16.5831 8.42919 16.5831 8.62756C16.5831 8.82594 16.6475 9.01895 16.7666 9.17756Z" fill="#099BEE"/>
</svg>
