<svg width="25" height="25" viewBox="0 0 25 25" fill="none" xmlns="http://www.w3.org/2000/svg">
<path fill-rule="evenodd" clip-rule="evenodd" d="M18.3093 3.65121H20.6665C21.9683 3.65121 23.0236 4.70654 23.0236 6.00835V20.9369C23.0236 22.2387 21.9683 23.2941 20.6665 23.2941H3.38076C2.07895 23.2941 1.02362 22.2387 1.02362 20.9369V6.00835C1.02362 4.70654 2.07895 3.65121 3.38076 3.65121H5.7379V2.0798C5.7379 1.64584 6.08972 1.29407 6.52363 1.29407C6.95754 1.29407 7.30932 1.64584 7.30932 2.0798V3.65121H16.7379V2.0798C16.7379 1.64584 17.0897 1.29407 17.5236 1.29407C17.9576 1.29407 18.3093 1.64584 18.3093 2.0798V3.65121ZM20.6664 21.7227C21.1004 21.7227 21.4522 21.3709 21.4522 20.9369V10.7226H2.59503V20.9369C2.59503 21.3709 2.94681 21.7227 3.38076 21.7227H20.6664ZM2.59503 9.15122H21.4522H21.4523V6.00835C21.4523 5.5744 21.1005 5.22262 20.6665 5.22262H18.3094V6.79403C18.3094 7.22799 17.9576 7.57976 17.5237 7.57976C17.0897 7.57976 16.7379 7.22799 16.7379 6.79403V5.22262H7.30936V6.79403C7.30936 7.22799 6.95759 7.57976 6.52363 7.57976C6.08968 7.57976 5.7379 7.22799 5.7379 6.79403V5.22262H3.38076C2.94681 5.22262 2.59503 5.5744 2.59503 6.00835V9.15122ZM5.73788 12.294H7.30929C7.74324 12.294 8.09502 12.6458 8.09502 13.0798C8.09502 13.5137 7.74324 13.8655 7.30929 13.8655H5.73788C5.30392 13.8655 4.95215 13.5137 4.95215 13.0798C4.95215 12.6458 5.30392 12.294 5.73788 12.294ZM12.8094 12.294H11.2379C10.804 12.294 10.4522 12.6458 10.4522 13.0798C10.4522 13.5137 10.804 13.8655 11.2379 13.8655H12.8094C13.2433 13.8655 13.5951 13.5137 13.5951 13.0798C13.5951 12.6458 13.2433 12.294 12.8094 12.294ZM16.7379 12.294H18.3094C18.7433 12.294 19.095 12.6458 19.0951 13.0798C19.0951 13.5137 18.7433 13.8655 18.3094 13.8655H16.7379C16.304 13.8655 15.9522 13.5137 15.9522 13.0798C15.9522 12.6458 16.304 12.294 16.7379 12.294ZM7.30929 15.4369H5.73788C5.30392 15.4369 4.95215 15.7887 4.95215 16.2226C4.95215 16.6566 5.30392 17.0084 5.73788 17.0084H7.30929C7.74324 17.0084 8.09502 16.6566 8.09502 16.2226C8.09502 15.7887 7.74324 15.4369 7.30929 15.4369ZM11.2379 15.4369H12.8094C13.2433 15.4369 13.5951 15.7887 13.5951 16.2226C13.5951 16.6566 13.2433 17.0084 12.8094 17.0084H11.2379C10.804 17.0084 10.4522 16.6566 10.4522 16.2226C10.4522 15.7887 10.804 15.4369 11.2379 15.4369ZM18.3094 15.4369H16.7379C16.304 15.4369 15.9522 15.7887 15.9522 16.2226C15.9522 16.6566 16.304 17.0084 16.7379 17.0084H18.3094C18.7433 17.0084 19.0951 16.6566 19.0951 16.2226C19.095 15.7887 18.7433 15.4369 18.3094 15.4369ZM5.73788 18.5798H7.30929C7.74324 18.5798 8.09502 18.9315 8.09502 19.3655C8.09502 19.7994 7.74324 20.1512 7.30929 20.1512H5.73788C5.30392 20.1512 4.95215 19.7995 4.95215 19.3655C4.95215 18.9315 5.30392 18.5798 5.73788 18.5798ZM12.8094 18.5798H11.2379C10.804 18.5798 10.4522 18.9315 10.4522 19.3655C10.4522 19.7995 10.804 20.1512 11.2379 20.1512H12.8094C13.2433 20.1512 13.5951 19.7995 13.5951 19.3655C13.5951 18.9315 13.2433 18.5798 12.8094 18.5798ZM16.7379 18.5798H18.3094C18.7433 18.5798 19.0951 18.9315 19.0951 19.3655C19.0951 19.7995 18.7433 20.1512 18.3094 20.1512H16.7379C16.304 20.1512 15.9522 19.7995 15.9522 19.3655C15.9522 18.9315 16.304 18.5798 16.7379 18.5798Z" fill="#AEAEB2"/>
</svg>
