<svg width="24" height="25" viewBox="0 0 24 25" fill="none" xmlns="http://www.w3.org/2000/svg">
<path d="M18.6458 8.62738L20.9833 5.51071C21.0855 5.37452 21.1477 5.21258 21.1629 5.04304C21.1782 4.87349 21.146 4.70303 21.0699 4.55077C20.9937 4.3985 20.8767 4.27045 20.7319 4.18095C20.5871 4.09145 20.4202 4.04405 20.25 4.04405H9.24998C9.24998 3.80093 9.1534 3.56777 8.98149 3.39587C8.80959 3.22396 8.57643 3.12738 8.33331 3.12738C8.0902 3.12738 7.85704 3.22396 7.68513 3.39587C7.51322 3.56777 7.41665 3.80093 7.41665 4.04405V19.6274H6.49998C6.25686 19.6274 6.02371 19.724 5.8518 19.8959C5.67989 20.0678 5.58331 20.3009 5.58331 20.544C5.58331 20.7872 5.67989 21.0203 5.8518 21.1922C6.02371 21.3641 6.25686 21.4607 6.49998 21.4607H10.1666C10.4098 21.4607 10.6429 21.3641 10.8148 21.1922C10.9867 21.0203 11.0833 20.7872 11.0833 20.544C11.0833 20.3009 10.9867 20.0678 10.8148 19.8959C10.6429 19.724 10.4098 19.6274 10.1666 19.6274H9.24998V13.2107H20.25C20.4202 13.2107 20.5871 13.1633 20.7319 13.0738C20.8767 12.9843 20.9937 12.8563 21.0699 12.704C21.146 12.5517 21.1782 12.3813 21.1629 12.2117C21.1477 12.0422 21.0855 11.8802 20.9833 11.744L18.6458 8.62738ZM16.7666 9.17738L18.4166 11.3774H9.24998V5.87738H18.4166L16.7666 8.07738C16.6475 8.23599 16.5831 8.429 16.5831 8.62738C16.5831 8.82576 16.6475 9.01877 16.7666 9.17738Z" fill="#AEAEB2"/>
</svg>
