<svg width="25" height="25" viewBox="0 0 25 25" fill="none" xmlns="http://www.w3.org/2000/svg">
<path fill-rule="evenodd" clip-rule="evenodd" d="M21.6504 2.29407H5.38956C4.20285 2.29407 3.23738 3.17176 3.23738 4.25059V5.77235H2.52002C2.1238 5.77235 1.80261 6.06434 1.80261 6.4245C1.80261 6.78465 2.1238 7.07668 2.52002 7.07668H3.23742V9.6854H2.52002C2.1238 9.68536 1.80261 9.97739 1.80261 10.3375C1.80261 10.6977 2.1238 10.9897 2.52002 10.9897H3.23742V13.5984H2.52002C2.1238 13.5984 1.80261 13.8904 1.80261 14.2506C1.80261 14.6107 2.1238 14.9028 2.52002 14.9028H3.23742V17.5115H2.52002C2.1238 17.5115 1.80261 17.8034 1.80261 18.1636C1.80261 18.5238 2.1238 18.8158 2.52002 18.8158H3.23742V20.3375C3.23738 21.4164 4.20285 22.2941 5.38956 22.2941H21.6504C22.8371 22.2941 23.8026 21.4164 23.8026 20.3375V4.25059C23.8026 3.17176 22.8371 2.29407 21.6504 2.29407ZM7.54173 20.9897H5.38956C4.99399 20.9897 4.67215 20.6972 4.67215 20.3375V18.8158H5.38956C5.78573 18.8158 6.10696 18.5238 6.10696 18.1636C6.10696 17.8034 5.78577 17.5114 5.38956 17.5114H4.67219V14.9027H5.3896C5.78577 14.9027 6.10701 14.6107 6.10701 14.2506C6.10701 13.8904 5.78582 13.5984 5.3896 13.5984H4.67219V10.9897H5.3896C5.78577 10.9897 6.10701 10.6977 6.10701 10.3375C6.10701 9.97731 5.78582 9.68528 5.3896 9.68528H4.67219V7.07657H5.3896C5.78577 7.07657 6.10701 6.78457 6.10701 6.42438C6.10701 6.06418 5.78582 5.77219 5.3896 5.77219H4.67219V4.25059C4.67219 3.89098 4.99403 3.5984 5.3896 3.5984H7.54178V20.9897H7.54173ZM22.3678 20.3375C22.3678 20.6972 22.046 20.9897 21.6504 20.9897H8.97655V3.5984H21.6504C22.046 3.5984 22.3678 3.89098 22.3678 4.25059V20.3375ZM20.1296 11.0315C19.5707 10.4667 18.7969 10.1557 17.951 10.1557C17.0501 10.1557 16.2651 10.5173 15.6722 11.2034C15.0792 10.5173 14.2942 10.1557 13.3934 10.1557C12.5474 10.1557 11.7736 10.4667 11.2147 11.0315C10.6875 11.5642 10.3972 12.2747 10.3972 13.032C10.3972 14.665 11.7646 15.6728 13.6573 17.0678L13.6575 17.0679C14.1237 17.4115 14.6523 17.8011 15.2053 18.232C15.3397 18.3366 15.5059 18.3889 15.6722 18.3889C15.8385 18.3889 16.0047 18.3366 16.1391 18.232C16.6921 17.8011 17.2206 17.4115 17.6869 17.0679C19.5797 15.6729 20.9472 14.665 20.9472 13.032C20.9472 12.2747 20.6568 11.5642 20.1296 11.0315ZM16.7833 16.0546C16.4418 16.3063 16.0674 16.5823 15.6722 16.8826C15.2775 16.5827 14.9036 16.3072 14.5625 16.0557L14.561 16.0546C12.7179 14.6962 11.8319 14.0003 11.8319 13.032C11.8319 12.27 12.3791 11.4601 13.3934 11.4601C14.5475 11.4601 14.9629 12.7023 14.9823 12.7623C15.07 13.0424 15.3511 13.2375 15.6717 13.2375C15.9934 13.2375 16.2753 13.0444 16.3621 12.7628C16.3791 12.7096 16.7936 11.4601 17.9511 11.4601C18.9653 11.4601 19.5125 12.27 19.5125 13.032C19.5124 14.0003 18.6264 14.6962 16.7833 16.0546ZM11.1287 5.77234H20.2156C20.6118 5.77234 20.933 6.06433 20.933 6.42453C20.933 6.78472 20.6118 7.07671 20.2156 7.07671H11.1287C10.7324 7.07671 10.4113 6.78472 10.4113 6.42453C10.4113 6.06433 10.7325 5.77234 11.1287 5.77234Z" fill="#AEAEB2"/>
</svg>
