<svg width="25" height="25" viewBox="0 0 25 25" fill="none" xmlns="http://www.w3.org/2000/svg">
<path fill-rule="evenodd" clip-rule="evenodd" d="M4.68615 6.11273C3.17327 6.11273 1.93585 7.35416 1.93585 8.86704C1.93585 10.3801 3.17327 11.6228 4.68615 11.6228C6.19904 11.6228 7.44046 10.3801 7.44046 8.86704C7.44046 7.35416 6.19904 6.11273 4.68615 6.11273ZM9.43906 6.80413C9.08799 6.83838 8.81726 7.13735 8.81762 7.48989V10.2486C8.81762 10.6261 9.12843 10.9369 9.50611 10.9369H21.9021C22.2789 10.9356 22.5881 10.6252 22.5881 10.2484C22.5881 10.2475 22.5881 10.2466 22.5881 10.2457V7.48989C22.5866 7.11422 22.2778 6.80541 21.9021 6.80413H9.5103C9.48661 6.80286 9.46275 6.80286 9.43906 6.80413ZM4.68615 7.48989C5.45499 7.48989 6.06331 8.09821 6.06331 8.86704C6.06331 9.63606 5.45499 10.2457 4.68615 10.2457C3.91732 10.2457 3.30772 9.63606 3.30772 8.86704C3.30772 8.09821 3.91732 7.48989 4.68615 7.48989ZM10.1962 8.18129H21.2162V9.55972H10.1962V8.18129ZM4.68615 13C3.17327 13 1.93585 14.2427 1.93585 15.7556C1.93585 17.2686 3.17327 18.51 4.68615 18.51C6.19904 18.51 7.44046 17.2686 7.44046 15.7556C7.44046 14.2427 6.19904 13 4.68615 13ZM9.5103 13.6859C9.50884 13.6859 9.50757 13.6859 9.50611 13.6859C9.12843 13.6859 8.81762 13.9965 8.81762 14.3742V17.1329C8.81908 17.5095 9.12934 17.8186 9.50611 17.8186H21.9021C22.2778 17.8174 22.5866 17.5086 22.5881 17.1329V14.3784C22.5881 14.3771 22.5881 14.3757 22.5881 14.3742C22.5881 13.9976 22.2789 13.6872 21.9021 13.6859H9.5103ZM4.68615 14.3784C5.45499 14.3784 6.06331 14.9867 6.06331 15.7556C6.06331 16.5246 5.45499 17.1329 4.68615 17.1329C3.91732 17.1329 3.30772 16.5246 3.30772 15.7556C3.30772 14.9867 3.91732 14.3784 4.68615 14.3784ZM10.1962 15.0643H21.2162V16.4415H10.1962V15.0643Z" fill="#AEAEB2"/>
</svg>
