<svg width="39" height="39" viewBox="0 0 39 39" fill="none" xmlns="http://www.w3.org/2000/svg">
<g clip-path="url(#clip0_60_3850)">
<path d="M28.0128 3.49923H25.6557V1.92782C25.6557 1.49387 25.3039 1.14209 24.8699 1.14209C24.436 1.14209 24.0842 1.49387 24.0842 1.92782V3.49923H14.6556V1.92782C14.6556 1.49387 14.3039 1.14209 13.8699 1.14209C13.436 1.14209 13.0842 1.49387 13.0842 1.92782V3.49923H10.7271C9.42526 3.49923 8.36993 4.55456 8.36993 5.85637V20.7849C8.36993 22.0868 9.42526 23.1421 10.7271 23.1421H28.0128C29.3146 23.1421 30.3699 22.0868 30.3699 20.7849V5.85637C30.3699 4.55456 29.3146 3.49923 28.0128 3.49923ZM28.7985 20.7849C28.7985 21.2189 28.4467 21.5707 28.0127 21.5707H10.7271C10.2931 21.5707 9.94135 21.2189 9.94135 20.7849V10.5707H28.7985V20.7849ZM28.7985 8.99924H9.94135V5.85637C9.94135 5.42242 10.2931 5.07064 10.7271 5.07064H13.0842V6.64206C13.0842 7.07601 13.436 7.42778 13.8699 7.42778C14.3039 7.42778 14.6557 7.07601 14.6557 6.64206V5.07064H24.0842V6.64206C24.0842 7.07601 24.436 7.42778 24.87 7.42778C25.3039 7.42778 25.6557 7.07601 25.6557 6.64206V5.07064H28.0128C28.4468 5.07064 28.7986 5.42242 28.7986 5.85637V8.99924H28.7985Z" fill="#099BEE"/>
<path d="M14.6556 12.1421H13.0842C12.6502 12.1421 12.2985 12.4939 12.2985 12.9278C12.2985 13.3618 12.6502 13.7135 13.0842 13.7135H14.6556C15.0896 13.7135 15.4413 13.3618 15.4413 12.9278C15.4413 12.4939 15.0896 12.1421 14.6556 12.1421Z" fill="#099BEE"/>
<path d="M20.1557 12.1421H18.5843C18.1503 12.1421 17.7985 12.4939 17.7985 12.9278C17.7985 13.3618 18.1503 13.7135 18.5843 13.7135H20.1557C20.5896 13.7135 20.9414 13.3618 20.9414 12.9278C20.9414 12.4939 20.5896 12.1421 20.1557 12.1421Z" fill="#099BEE"/>
<path d="M25.6557 12.1421H24.0843C23.6503 12.1421 23.2985 12.4939 23.2985 12.9278C23.2985 13.3618 23.6503 13.7135 24.0843 13.7135H25.6557C26.0896 13.7135 26.4414 13.3618 26.4414 12.9278C26.4413 12.4939 26.0896 12.1421 25.6557 12.1421Z" fill="#099BEE"/>
<path d="M14.6556 15.2849H13.0842C12.6502 15.2849 12.2985 15.6367 12.2985 16.0706C12.2985 16.5046 12.6502 16.8564 13.0842 16.8564H14.6556C15.0896 16.8564 15.4413 16.5046 15.4413 16.0706C15.4413 15.6367 15.0896 15.2849 14.6556 15.2849Z" fill="#099BEE"/>
<path d="M20.1557 15.2849H18.5843C18.1503 15.2849 17.7985 15.6367 17.7985 16.0706C17.7985 16.5046 18.1503 16.8564 18.5843 16.8564H20.1557C20.5896 16.8564 20.9414 16.5046 20.9414 16.0706C20.9414 15.6367 20.5896 15.2849 20.1557 15.2849Z" fill="#099BEE"/>
<path d="M25.6557 15.2849H24.0843C23.6503 15.2849 23.2985 15.6367 23.2985 16.0706C23.2985 16.5046 23.6503 16.8564 24.0843 16.8564H25.6557C26.0896 16.8564 26.4414 16.5046 26.4414 16.0706C26.4413 15.6367 26.0896 15.2849 25.6557 15.2849Z" fill="#099BEE"/>
<path d="M14.6556 18.4278H13.0842C12.6502 18.4278 12.2985 18.7796 12.2985 19.2135C12.2985 19.6475 12.6502 19.9992 13.0842 19.9992H14.6556C15.0896 19.9992 15.4413 19.6474 15.4413 19.2135C15.4413 18.7795 15.0896 18.4278 14.6556 18.4278Z" fill="#099BEE"/>
<path d="M20.1557 18.4278H18.5843C18.1503 18.4278 17.7985 18.7796 17.7985 19.2135C17.7985 19.6475 18.1503 19.9993 18.5843 19.9993H20.1557C20.5896 19.9993 20.9414 19.6475 20.9414 19.2135C20.9414 18.7796 20.5896 18.4278 20.1557 18.4278Z" fill="#099BEE"/>
<path d="M25.6557 18.4278H24.0843C23.6503 18.4278 23.2985 18.7796 23.2985 19.2135C23.2985 19.6475 23.6503 19.9993 24.0843 19.9993H25.6557C26.0896 19.9993 26.4414 19.6475 26.4414 19.2135C26.4414 18.7796 26.0896 18.4278 25.6557 18.4278Z" fill="#099BEE"/>
</g>
<path d="M13.1019 30.8935V32.8272H13.8271V28.2623H13.1019V30.2581H11.9141V28.428H11.182V32.765H11.9141V30.8935H13.1019ZM10.3395 28.7526H6.9417V29.381H9.58328C9.5522 29.6918 9.48314 29.9853 9.37609 30.265L6.52734 30.4515L6.65165 31.0937L9.08949 30.8348C8.61643 31.5806 7.7946 32.1884 6.58259 32.6338L6.92789 33.1863C9.26905 32.3023 10.3395 30.7899 10.3395 28.7526ZM8.84778 35.2512H13.8271V33.2208H8.06739V33.8355H13.0812V34.6711H8.08811V36.8189H14.1793V36.2042H8.84778V35.2512ZM21.8028 28.2623V34.6504H22.5556V28.2623H21.8028ZM20.7323 32.4819C19.3546 32.7201 18.2185 32.7719 16.6025 32.7719V31.3838H19.8069V28.8769H15.8359V29.5053H19.0473V30.783H15.8567V33.4142H16.5611C18.2254 33.4073 19.3926 33.3589 20.8152 33.1172L20.7323 32.4819ZM17.6384 34.1531H16.8649V36.7429H22.8111V36.1076H17.6384V34.1531ZM30.7799 31.4114H28.2454V32.0537H30.7799V36.9501H31.5465V28.2553H30.7799V31.4114ZM25.552 29.7263H28.7633V29.0841H24.7785V34.8023H25.4484C27.1128 34.8023 28.1694 34.7471 29.447 34.5053L29.3572 33.87C28.1487 34.1013 27.1162 34.1497 25.552 34.1531V29.7263Z" fill="#099BEE"/>
<defs>
<clipPath id="clip0_60_3850">
<rect width="22" height="22" fill="white" transform="translate(8.36993 1.14209)"/>
</clipPath>
</defs>
</svg>
