<svg width="39" height="39" viewBox="0 0 39 39" fill="none" xmlns="http://www.w3.org/2000/svg">
<path d="M25.8138 9.00671L28.1513 5.89005C28.2535 5.75386 28.3157 5.59192 28.331 5.42237C28.3463 5.25282 28.314 5.08237 28.2379 4.9301C28.1618 4.77784 28.0447 4.64978 27.8999 4.56028C27.7551 4.47079 27.5882 4.42338 27.418 4.42338H16.418C16.418 4.18027 16.3214 3.94711 16.1495 3.7752C15.9776 3.60329 15.7445 3.50671 15.5013 3.50671C15.2582 3.50671 15.0251 3.60329 14.8532 3.7752C14.6813 3.94711 14.5847 4.18027 14.5847 4.42338V20.0067H13.668C13.4249 20.0067 13.1917 20.1033 13.0198 20.2752C12.8479 20.4471 12.7513 20.6803 12.7513 20.9234C12.7513 21.1665 12.8479 21.3997 13.0198 21.5716C13.1917 21.7435 13.4249 21.84 13.668 21.84H17.3347C17.5778 21.84 17.8109 21.7435 17.9829 21.5716C18.1548 21.3997 18.2513 21.1665 18.2513 20.9234C18.2513 20.6803 18.1548 20.4471 17.9829 20.2752C17.8109 20.1033 17.5778 20.0067 17.3347 20.0067H16.418V13.59H27.418C27.5882 13.59 27.7551 13.5426 27.8999 13.4531C28.0447 13.3636 28.1618 13.2356 28.2379 13.0833C28.314 12.9311 28.3463 12.7606 28.331 12.5911C28.3157 12.4215 28.2535 12.2596 28.1513 12.1234L25.8138 9.00671ZM23.9347 9.55671L25.5847 11.7567H16.418V6.25671H25.5847L23.9347 8.45671C23.8155 8.61533 23.7511 8.80834 23.7511 9.00671C23.7511 9.20509 23.8155 9.3981 23.9347 9.55671Z" fill="#099BEE"/>
<path d="M15.0646 32.0877H17.6268V29.1526H11.7497V32.0877H14.3049V33.1927H10.7276V33.8211H18.642V33.1927H15.0646V32.0877ZM16.8671 29.7673V31.4662H12.5025V29.7673H16.8671ZM16.8878 35.3474V37.4675H17.6613V34.7327H11.6047V35.3474H16.8878ZM25.347 33.6968H26.8387V33.0615H25.4782V30.23H26.8594V29.5946H20.3746V30.23H21.7489V33.0615H20.3884V33.6968H21.887V35.7686H19.6702V36.404H27.6191V35.7686H25.347V33.6968ZM24.7254 30.23V33.0615H22.5086V30.23H24.7254ZM24.5804 33.6968V35.7686H22.6536V33.6968H24.5804Z" fill="#099BEE"/>
</svg>
