<svg width="39" height="39" viewBox="0 0 39 39" fill="none" xmlns="http://www.w3.org/2000/svg">
<g clip-path="url(#clip0_60_4435)">
<path d="M28.8207 2.8551H12.5598C11.3731 2.8551 10.4076 3.7328 10.4076 4.81163V6.33338H9.69025C9.29403 6.33338 8.97284 6.62538 8.97284 6.98553C8.97284 7.34569 9.29403 7.63772 9.69025 7.63772H10.4077V10.2464H9.69025C9.29403 10.2464 8.97284 10.5384 8.97284 10.8986C8.97284 11.2587 9.29403 11.5508 9.69025 11.5508H10.4077V14.1595H9.69025C9.29403 14.1594 8.97284 14.4515 8.97284 14.8116C8.97284 15.1718 9.29403 15.4638 9.69025 15.4638H10.4077V18.0725H9.69025C9.29403 18.0725 8.97284 18.3645 8.97284 18.7247C8.97284 19.0849 9.29403 19.3769 9.69025 19.3769H10.4077V20.8986C10.4076 21.9774 11.3731 22.8551 12.5598 22.8551H28.8207C30.0074 22.8551 30.9728 21.9774 30.9728 20.8986V4.81163C30.9728 3.7328 30.0074 2.8551 28.8207 2.8551ZM14.712 21.5508H12.5598C12.1642 21.5508 11.8424 21.2582 11.8424 20.8986V19.3769H12.5598C12.956 19.3769 13.2772 19.0849 13.2772 18.7247C13.2772 18.3645 12.956 18.0725 12.5598 18.0725H11.8424V15.4638H12.5598C12.956 15.4638 13.2772 15.1718 13.2772 14.8116C13.2772 14.4514 12.956 14.1594 12.5598 14.1594H11.8424V11.5507H12.5598C12.956 11.5507 13.2772 11.2587 13.2772 10.8985C13.2772 10.5383 12.956 10.2463 12.5598 10.2463H11.8424V7.6376H12.5598C12.956 7.6376 13.2772 7.34561 13.2772 6.98541C13.2772 6.62522 12.956 6.33323 12.5598 6.33323H11.8424V4.81163C11.8424 4.45202 12.1643 4.15944 12.5598 4.15944H14.712V21.5508H14.712ZM29.5381 20.8986C29.5381 21.2582 29.2162 21.5508 28.8207 21.5508H16.1468V4.15944H28.8207C29.2162 4.15944 29.5381 4.45202 29.5381 4.81163V20.8986Z" fill="#099BEE"/>
<path d="M27.2998 11.5925C26.7409 11.0278 25.9672 10.7167 25.1212 10.7167C24.2204 10.7167 23.4354 11.0783 22.8424 11.7644C22.2494 11.0783 21.4645 10.7167 20.5636 10.7167C19.7176 10.7167 18.9439 11.0278 18.385 11.5925C17.8578 12.1253 17.5674 12.8357 17.5674 13.593C17.5674 15.226 18.9349 16.2339 20.8277 17.6289C21.294 17.9725 21.8225 18.3621 22.3756 18.793C22.5099 18.8977 22.6761 18.95 22.8424 18.95C23.0087 18.95 23.175 18.8976 23.3093 18.793C23.8623 18.3621 24.3909 17.9726 24.8572 17.6289C26.75 16.2339 28.1175 15.226 28.1175 13.593C28.1174 12.8358 27.8271 12.1253 27.2998 11.5925ZM23.9536 16.6157C23.612 16.8674 23.2377 17.1433 22.8424 17.4436C22.4472 17.1433 22.0728 16.8674 21.7313 16.6157C19.8882 15.2573 19.0022 14.5614 19.0022 13.593C19.0022 12.831 19.5494 12.0211 20.5636 12.0211C21.7178 12.0211 22.1331 13.2633 22.1525 13.3233C22.2403 13.6034 22.5213 13.7985 22.842 13.7985C23.1637 13.7985 23.4456 13.6054 23.5323 13.3238C23.5494 13.2707 23.9638 12.0212 25.1214 12.0212C26.1356 12.0212 26.6828 12.831 26.6828 13.5931C26.6827 14.5613 25.7967 15.2573 23.9536 16.6157Z" fill="#099BEE"/>
<path d="M27.3859 6.33337H18.2989C17.9027 6.33337 17.5815 6.62537 17.5815 6.98556C17.5815 7.34576 17.9027 7.63775 18.2989 7.63775H27.3859C27.782 7.63775 28.1033 7.34576 28.1033 6.98556C28.1033 6.62537 27.7821 6.33337 27.3859 6.33337Z" fill="#099BEE"/>
</g>
<path d="M17.8861 37.6493H18.6526V28.9684H17.8861V37.6493ZM14.8198 30.0388V28.9753H14.0532V30.0388H11.7673V30.6604H17.085V30.0388H14.8198ZM14.8198 34.3447C15.8522 34.2273 16.5256 33.6334 16.5256 32.7736C16.5256 31.7929 15.6761 31.1576 14.4192 31.1576C13.1692 31.1576 12.3336 31.7929 12.3405 32.7736C12.3336 33.6438 13.0104 34.2377 14.0532 34.3516V35.2943C13.1727 35.322 12.3232 35.3289 11.5808 35.3358L11.6982 35.9849C13.3073 35.9849 15.4344 35.9573 17.375 35.6465L17.3129 35.0595C16.5118 35.1631 15.6623 35.2287 14.8198 35.2667V34.3447ZM13.0587 32.7736C13.0518 32.1659 13.6181 31.7584 14.4192 31.7584C15.2341 31.7584 15.7935 32.1659 15.7935 32.7736C15.7935 33.3744 15.2341 33.7681 14.4192 33.7612C13.6181 33.7681 13.0518 33.3744 13.0587 32.7736ZM26.6698 30.7087C26.6629 31.7515 26.6629 32.967 26.3383 34.6244L27.1118 34.7142C27.4295 32.967 27.4295 31.7791 27.4364 30.7087V29.8454H21.3176V30.4808H26.6698V30.7087ZM24.3355 32.6769H23.5759V35.7778H20.4751V36.42H28.3894V35.7778H24.3355V32.6769Z" fill="#099BEE"/>
<defs>
<clipPath id="clip0_60_4435">
<rect width="22" height="20" fill="white" transform="translate(8.97284 2.8551)"/>
</clipPath>
</defs>
</svg>
