<svg width="39" height="39" viewBox="0 0 39 39" fill="none" xmlns="http://www.w3.org/2000/svg">
<g clip-path="url(#clip0_191_1114)">
<path fill-rule="evenodd" clip-rule="evenodd" d="M12.1606 6.31215C10.6478 6.31215 9.41034 7.55357 9.41034 9.06646C9.41034 10.5795 10.6478 11.8222 12.1606 11.8222C13.6735 11.8222 14.915 10.5795 14.915 9.06646C14.915 7.55357 13.6735 6.31215 12.1606 6.31215ZM16.9136 7.00355C16.5625 7.0378 16.2917 7.33677 16.2921 7.6893V10.4451V10.448C16.2921 10.8255 16.6029 11.1363 16.9806 11.1363H16.9848H29.3766C29.7534 11.135 30.0626 10.8246 30.0626 10.4478C30.0626 10.4469 30.0626 10.446 30.0626 10.4451V7.6893C30.0611 7.31363 29.7523 7.00482 29.3766 7.00355H16.9848C16.9611 7.00227 16.9372 7.00227 16.9136 7.00355ZM12.1606 7.6893C12.9295 7.6893 13.5378 8.29763 13.5378 9.06646C13.5378 9.83547 12.9295 10.4451 12.1606 10.4451C11.3918 10.4451 10.7822 9.83547 10.7822 9.06646C10.7822 8.29763 11.3918 7.6893 12.1606 7.6893ZM17.6707 8.3807H28.6907V9.75913H17.6707V8.3807ZM12.1606 13.1994C10.6478 13.1994 9.41034 14.4421 9.41034 15.955C9.41034 17.468 10.6478 18.7095 12.1606 18.7095C13.6735 18.7095 14.915 17.468 14.915 15.955C14.915 14.4421 13.6735 13.1994 12.1606 13.1994ZM16.9848 13.8853C16.9833 13.8853 16.9821 13.8853 16.9806 13.8853C16.6029 13.8853 16.2921 14.1959 16.2921 14.5736V14.5778V17.3323C16.2936 17.7089 16.6038 18.0181 16.9806 18.0181H16.9848H29.3766C29.7523 18.0168 30.0611 17.708 30.0626 17.3323V14.5778C30.0626 14.5765 30.0626 14.5751 30.0626 14.5736C30.0626 14.197 29.7534 13.8866 29.3766 13.8853H16.9848ZM12.1606 14.5778C12.9295 14.5778 13.5378 15.1861 13.5378 15.955C13.5378 16.724 12.9295 17.3323 12.1606 17.3323C11.3918 17.3323 10.7822 16.724 10.7822 15.955C10.7822 15.1861 11.3918 14.5778 12.1606 14.5778ZM17.6707 15.2637H28.6907V16.6409H17.6707V15.2637Z" fill="#099BEE"/>
</g>
<path d="M13.095 32.3429V31.2656H18.0122V30.6509H13.095V29.6426H18.2194V29.0142H12.3354V32.9645H18.316V32.3429H13.095ZM11.2649 33.8623V34.4976H14.8561V37.2877H15.6089V34.4976H19.2138V33.8623H11.2649ZM22.0929 31.8526V29.7531H27.0307V29.1178H21.3125V32.4741H27.1481V31.8526H22.0929ZM20.2075 33.6205V34.249H23.7849V37.26H24.5376V34.249H28.1564V33.6205H20.2075Z" fill="#099BEE"/>
<defs>
<clipPath id="clip0_191_1114">
<rect width="22" height="22" fill="white" transform="translate(8.71912 1.49347)"/>
</clipPath>
</defs>
</svg>
