<svg width="39" height="39" viewBox="0 0 39 39" fill="none" xmlns="http://www.w3.org/2000/svg">
<g clip-path="url(#clip0_191_1121)">
<path d="M28.0287 3.85061H25.6715V2.2792C25.6715 1.84524 25.3197 1.49347 24.8858 1.49347C24.4518 1.49347 24.1001 1.84524 24.1001 2.2792V3.85061H14.6715V2.2792C14.6715 1.84524 14.3197 1.49347 13.8858 1.49347C13.4519 1.49347 13.1001 1.84524 13.1001 2.2792V3.85061H10.7429C9.44113 3.85061 8.3858 4.90594 8.3858 6.20775V21.1363C8.3858 22.4381 9.44113 23.4935 10.7429 23.4935H28.0287C29.3305 23.4935 30.3858 22.4381 30.3858 21.1363V6.20775C30.3858 4.90594 29.3305 3.85061 28.0287 3.85061ZM28.8143 21.1363C28.8143 21.5703 28.4626 21.9221 28.0286 21.9221H10.7429C10.309 21.9221 9.95722 21.5703 9.95722 21.1363V10.922H28.8143V21.1363ZM28.8143 9.35062H9.95722V6.20775C9.95722 5.7738 10.309 5.42202 10.7429 5.42202H13.1001V6.99343C13.1001 7.42739 13.4519 7.77916 13.8858 7.77916C14.3198 7.77916 14.6715 7.42739 14.6715 6.99343V5.42202H24.1001V6.99343C24.1001 7.42739 24.4519 7.77916 24.8858 7.77916C25.3198 7.77916 25.6716 7.42739 25.6716 6.99343V5.42202H28.0287C28.4627 5.42202 28.8144 5.7738 28.8144 6.20775V9.35062H28.8143Z" fill="#AEAEB2"/>
<path d="M14.6715 12.4934H13.1001C12.6661 12.4934 12.3144 12.8452 12.3144 13.2792C12.3144 13.7131 12.6661 14.0649 13.1001 14.0649H14.6715C15.1055 14.0649 15.4572 13.7131 15.4572 13.2792C15.4572 12.8452 15.1055 12.4934 14.6715 12.4934Z" fill="#AEAEB2"/>
<path d="M20.1715 12.4934H18.6001C18.1661 12.4934 17.8144 12.8452 17.8144 13.2792C17.8144 13.7131 18.1661 14.0649 18.6001 14.0649H20.1715C20.6055 14.0649 20.9572 13.7131 20.9572 13.2792C20.9572 12.8452 20.6055 12.4934 20.1715 12.4934Z" fill="#AEAEB2"/>
<path d="M25.6715 12.4934H24.1001C23.6662 12.4934 23.3144 12.8452 23.3144 13.2792C23.3144 13.7131 23.6662 14.0649 24.1001 14.0649H25.6715C26.1055 14.0649 26.4573 13.7131 26.4573 13.2792C26.4572 12.8452 26.1054 12.4934 25.6715 12.4934Z" fill="#AEAEB2"/>
<path d="M14.6715 15.6363H13.1001C12.6661 15.6363 12.3144 15.9881 12.3144 16.422C12.3144 16.856 12.6661 17.2078 13.1001 17.2078H14.6715C15.1055 17.2078 15.4572 16.856 15.4572 16.422C15.4572 15.9881 15.1055 15.6363 14.6715 15.6363Z" fill="#AEAEB2"/>
<path d="M20.1715 15.6363H18.6001C18.1661 15.6363 17.8144 15.9881 17.8144 16.422C17.8144 16.856 18.1661 17.2078 18.6001 17.2078H20.1715C20.6055 17.2078 20.9572 16.856 20.9572 16.422C20.9572 15.9881 20.6055 15.6363 20.1715 15.6363Z" fill="#AEAEB2"/>
<path d="M25.6715 15.6363H24.1001C23.6662 15.6363 23.3144 15.9881 23.3144 16.422C23.3144 16.856 23.6662 17.2078 24.1001 17.2078H25.6715C26.1055 17.2078 26.4573 16.856 26.4573 16.422C26.4572 15.9881 26.1054 15.6363 25.6715 15.6363Z" fill="#AEAEB2"/>
<path d="M14.6715 18.7792H13.1001C12.6661 18.7792 12.3144 19.131 12.3144 19.5649C12.3144 19.9989 12.6661 20.3506 13.1001 20.3506H14.6715C15.1055 20.3506 15.4572 19.9988 15.4572 19.5649C15.4572 19.1309 15.1055 18.7792 14.6715 18.7792Z" fill="#AEAEB2"/>
<path d="M20.1715 18.7792H18.6001C18.1661 18.7792 17.8144 19.131 17.8144 19.5649C17.8144 19.9989 18.1661 20.3506 18.6001 20.3506H20.1715C20.6055 20.3506 20.9572 19.9989 20.9572 19.5649C20.9572 19.131 20.6055 18.7792 20.1715 18.7792Z" fill="#AEAEB2"/>
<path d="M25.6715 18.7792H24.1001C23.6662 18.7792 23.3144 19.131 23.3144 19.5649C23.3144 19.9989 23.6662 20.3506 24.1001 20.3506H25.6715C26.1055 20.3506 26.4573 19.9989 26.4573 19.5649C26.4573 19.131 26.1054 18.7792 25.6715 18.7792Z" fill="#AEAEB2"/>
</g>
<path d="M13.1178 31.2449V33.1786H13.8429V28.6136H13.1178V30.6095H11.9299V28.7794H11.1979V33.1164H11.9299V31.2449H13.1178ZM10.3554 29.104H6.95757V29.7324H9.59915C9.56807 30.0432 9.49901 30.3367 9.39196 30.6164L6.54321 30.8029L6.66752 31.4451L9.10536 31.1861C8.6323 31.932 7.81047 32.5397 6.59846 32.9852L6.94376 33.5377C9.28492 32.6537 10.3554 31.1413 10.3554 29.104ZM8.86365 35.6026H13.8429V33.5722H8.08326V34.1868H13.0971V35.0225H8.10398V37.1703H14.1951V36.5556H8.86365V35.6026ZM21.8187 28.6136V35.0018H22.5714V28.6136H21.8187ZM20.7482 32.8332C19.3705 33.0715 18.2344 33.1233 16.6184 33.1233V31.7352H19.8228V29.2283H15.8518V29.8567H19.0631V31.1344H15.8725V33.7656H16.5769C18.2413 33.7587 19.4084 33.7103 20.8311 33.4686L20.7482 32.8332ZM17.6543 34.5045H16.8808V37.0943H22.8269V36.4589H17.6543V34.5045ZM30.7958 31.7628H28.2612V32.4051H30.7958V37.3015H31.5623V28.6067H30.7958V31.7628ZM25.5679 30.0777H28.7792V29.4355H24.7944V35.1537H25.4643C27.1286 35.1537 28.1853 35.0984 29.4629 34.8567L29.3731 34.2214C28.1646 34.4527 27.1321 34.5011 25.5679 34.5045V30.0777Z" fill="#AEAEB2"/>
<defs>
<clipPath id="clip0_191_1121">
<rect width="22" height="22" fill="white" transform="translate(8.3858 1.49347)"/>
</clipPath>
</defs>
</svg>
