<svg width="39" height="39" viewBox="0 0 39 39" fill="none" xmlns="http://www.w3.org/2000/svg">
<g clip-path="url(#clip0_60_3843)">
<path fill-rule="evenodd" clip-rule="evenodd" d="M12.1447 5.96075C10.6318 5.96075 9.39441 7.20218 9.39441 8.71507C9.39441 10.2281 10.6318 11.4708 12.1447 11.4708C13.6576 11.4708 14.899 10.2281 14.899 8.71507C14.899 7.20218 13.6576 5.96075 12.1447 5.96075ZM16.8976 6.65216C16.5465 6.68641 16.2758 6.98538 16.2762 7.33791V10.0937V10.0966C16.2762 10.4741 16.587 10.7849 16.9647 10.7849H16.9689H29.3607C29.7375 10.7836 30.0466 10.4732 30.0466 10.0964C30.0466 10.0955 30.0466 10.0946 30.0466 10.0937V7.33791C30.0452 6.96224 29.7364 6.65343 29.3607 6.65216H16.9689C16.9452 6.65088 16.9213 6.65088 16.8976 6.65216ZM12.1447 7.33791C12.9135 7.33791 13.5219 7.94623 13.5219 8.71507C13.5219 9.48408 12.9135 10.0937 12.1447 10.0937C11.3759 10.0937 10.7663 9.48408 10.7663 8.71507C10.7663 7.94623 11.3759 7.33791 12.1447 7.33791ZM17.6548 8.02931H28.6748V9.40774H17.6548V8.02931ZM12.1447 12.848C10.6318 12.848 9.39441 14.0907 9.39441 15.6036C9.39441 17.1166 10.6318 18.3581 12.1447 18.3581C13.6576 18.3581 14.899 17.1166 14.899 15.6036C14.899 14.0907 13.6576 12.848 12.1447 12.848ZM16.9689 13.5339C16.9674 13.5339 16.9661 13.5339 16.9647 13.5339C16.587 13.5339 16.2762 13.8446 16.2762 14.2222V14.2264V16.9809C16.2776 17.3575 16.5879 17.6667 16.9647 17.6667H16.9689H29.3607C29.7364 17.6654 30.0452 17.3566 30.0466 16.9809V14.2264C30.0466 14.2251 30.0466 14.2237 30.0466 14.2222C30.0466 13.8456 29.7375 13.5352 29.3607 13.5339H16.9689ZM12.1447 14.2264C12.9135 14.2264 13.5219 14.8347 13.5219 15.6036C13.5219 16.3726 12.9135 16.9809 12.1447 16.9809C11.3759 16.9809 10.7663 16.3726 10.7663 15.6036C10.7663 14.8347 11.3759 14.2264 12.1447 14.2264ZM17.6548 14.9124H28.6748V16.2895H17.6548V14.9124Z" fill="#AEAEB2"/>
</g>
<path d="M13.0792 31.9915V30.9142H17.9963V30.2995H13.0792V29.2913H18.2035V28.6628H12.3195V32.6131H18.3002V31.9915H13.0792ZM11.2491 33.5109V34.1462H14.8402V36.9363H15.593V34.1462H19.198V33.5109H11.2491ZM22.077 31.5012V29.4018H27.0149V28.7664H21.2966V32.1228H27.1323V31.5012H22.077ZM20.1916 33.2692V33.8976H23.769V36.9087H24.5218V33.8976H28.1405V33.2692H20.1916Z" fill="#AEAEB2"/>
<defs>
<clipPath id="clip0_60_3843">
<rect width="22" height="22" fill="white" transform="translate(8.70325 1.14209)"/>
</clipPath>
</defs>
</svg>
