<svg width="8" height="13" viewBox="0 0 8 13" fill="none" xmlns="http://www.w3.org/2000/svg">
<path fill-rule="evenodd" clip-rule="evenodd" d="M6.88705 12.93C6.7541 12.9301 6.62245 12.9039 6.49966 12.8529C6.37688 12.8019 6.26537 12.7272 6.17155 12.633L1.10905 7.57049C1.01499 7.47647 0.940385 7.36484 0.889482 7.24197C0.838578 7.11911 0.812378 6.98742 0.812378 6.85443C0.812378 6.72144 0.838578 6.58975 0.889482 6.46689C0.940385 6.34402 1.01499 6.23239 1.10905 6.13837L6.17155 1.07587C6.26483 0.978575 6.37661 0.900887 6.50031 0.84736C6.62402 0.793833 6.75716 0.765544 6.89194 0.764153C7.02673 0.762762 7.16043 0.788297 7.28521 0.83926C7.41 0.890222 7.52335 0.965587 7.61862 1.06093C7.71389 1.15628 7.78917 1.26969 7.84003 1.39452C7.8909 1.51934 7.91633 1.65306 7.91483 1.78784C7.91333 1.92262 7.88494 2.05575 7.83132 2.17941C7.77769 2.30307 7.69992 2.41479 7.60255 2.50799L3.25667 6.85499L7.60255 11.2009C7.74436 11.3424 7.84098 11.5228 7.8802 11.7193C7.91942 11.9158 7.89946 12.1195 7.82285 12.3046C7.74624 12.4898 7.61643 12.648 7.44985 12.7593C7.28327 12.8706 7.0874 12.93 6.88705 12.93Z" fill="#8B95A1"/>
</svg>
