<svg width="8" height="13" viewBox="0 0 8 13" fill="none" xmlns="http://www.w3.org/2000/svg">
<path fill-rule="evenodd" clip-rule="evenodd" d="M1.637 12.93C1.37825 12.93 1.1195 12.8287 0.916996 12.6375C0.728075 12.4477 0.622009 12.1909 0.622009 11.9231C0.622009 11.6554 0.728075 11.3985 0.916996 11.2087L5.27075 6.85499L0.916996 2.51249C0.728075 2.32274 0.622009 2.06588 0.622009 1.79812C0.622009 1.53036 0.728075 1.2735 0.916996 1.08374C1.10675 0.894823 1.36361 0.788757 1.63137 0.788757C1.89913 0.788757 2.156 0.894823 2.34575 1.08374L7.40825 6.14624C7.59717 6.336 7.70323 6.59286 7.70323 6.86062C7.70323 7.12838 7.59717 7.38524 7.40825 7.575L2.34575 12.6375C2.1545 12.8287 1.89575 12.93 1.637 12.93Z" fill="#8B95A1"/>
</svg>
