<svg width="16" height="17" viewBox="0 0 16 17" fill="none" xmlns="http://www.w3.org/2000/svg">
<path d="M12.6666 4.11523H12V2.7819C12 2.60509 11.9297 2.43552 11.8047 2.3105C11.6797 2.18547 11.5101 2.11523 11.3333 2.11523C11.1565 2.11523 10.9869 2.18547 10.8619 2.3105C10.7369 2.43552 10.6666 2.60509 10.6666 2.7819V4.11523H5.33331V2.7819C5.33331 2.60509 5.26308 2.43552 5.13805 2.3105C5.01303 2.18547 4.84346 2.11523 4.66665 2.11523C4.48984 2.11523 4.32027 2.18547 4.19524 2.3105C4.07022 2.43552 3.99998 2.60509 3.99998 2.7819V4.11523H3.33331C2.80288 4.11523 2.29417 4.32595 1.9191 4.70102C1.54403 5.07609 1.33331 5.5848 1.33331 6.11523V6.7819H14.6666V6.11523C14.6666 5.5848 14.4559 5.07609 14.0809 4.70102C13.7058 4.32595 13.1971 4.11523 12.6666 4.11523Z" fill="#F6F6F8"/>
<path d="M1.33331 13.4486C1.33331 13.979 1.54403 14.4877 1.9191 14.8628C2.29417 15.2379 2.80288 15.4486 3.33331 15.4486H12.6666C13.1971 15.4486 13.7058 15.2379 14.0809 14.8628C14.4559 14.4877 14.6666 13.979 14.6666 13.4486V8.11523H1.33331V13.4486Z" fill="#F6F6F8"/>
</svg>
