<svg width="16" height="17" viewBox="0 0 16 17" fill="none" xmlns="http://www.w3.org/2000/svg">
<path d="M12.8333 6.11523L14.5333 3.84857C14.6074 3.74948 14.6525 3.63173 14.6635 3.50848C14.6746 3.38524 14.6511 3.26136 14.5958 3.15068C14.5404 3.04001 14.4554 2.94691 14.3502 2.88178C14.245 2.81666 14.1237 2.78207 14 2.7819H5.99998C5.99998 2.60509 5.92974 2.43552 5.80472 2.3105C5.67969 2.18547 5.51012 2.11523 5.33331 2.11523C5.1565 2.11523 4.98693 2.18547 4.86191 2.3105C4.73688 2.43552 4.66665 2.60509 4.66665 2.7819V14.1152H3.99998C3.82317 14.1152 3.6536 14.1855 3.52858 14.3105C3.40355 14.4355 3.33331 14.6051 3.33331 14.7819C3.33331 14.9587 3.40355 15.1283 3.52858 15.2533C3.6536 15.3783 3.82317 15.4486 3.99998 15.4486H6.66665C6.84346 15.4486 7.01303 15.3783 7.13805 15.2533C7.26308 15.1283 7.33331 14.9587 7.33331 14.7819C7.33331 14.6051 7.26308 14.4355 7.13805 14.3105C7.01303 14.1855 6.84346 14.1152 6.66665 14.1152H5.99998V9.44857H14C14.1237 9.4484 14.245 9.41381 14.3502 9.34869C14.4554 9.28356 14.5404 9.19046 14.5958 9.07979C14.6511 8.96911 14.6746 8.84523 14.6635 8.72199C14.6525 8.59874 14.6074 8.48099 14.5333 8.3819L12.8333 6.11523Z" fill="#F6F6F8"/>
</svg>
