<svg width="16" height="17" viewBox="0 0 16 17" fill="none" xmlns="http://www.w3.org/2000/svg">
<path d="M11.815 1.78193C11.5528 1.53219 11.2046 1.39288 10.8425 1.39288C10.4804 1.39288 10.1322 1.53219 9.87001 1.78193L5.22001 6.43193C5.09549 6.55752 4.94776 6.65771 4.78501 6.72693L2.60501 7.64193C2.40394 7.70647 2.22277 7.8215 2.07882 7.97602C1.93487 8.13054 1.83295 8.31939 1.78279 8.52452C1.73264 8.72966 1.73592 8.94424 1.79233 9.14774C1.84875 9.35125 1.9564 9.53689 2.10501 9.68693L4.23501 11.8169L1.23501 14.8419C1.18267 14.8868 1.14016 14.9419 1.11015 15.0039C1.08014 15.066 1.06327 15.1335 1.06061 15.2024C1.05795 15.2713 1.06956 15.3399 1.09469 15.4041C1.11983 15.4683 1.15796 15.5265 1.20669 15.5753C1.25542 15.624 1.31369 15.6621 1.37785 15.6873C1.44201 15.7124 1.51068 15.724 1.57954 15.7213C1.6484 15.7187 1.71597 15.7018 1.778 15.6718C1.84003 15.6418 1.89519 15.5993 1.94001 15.5469L4.96501 12.5469L7.09501 14.6769C7.20895 14.7916 7.34453 14.8824 7.49389 14.9442C7.64324 15.006 7.80338 15.0375 7.96501 15.0369C8.0608 15.0369 8.15631 15.0268 8.25001 15.0069C8.44907 14.9613 8.63349 14.8664 8.78637 14.731C8.93925 14.5956 9.05569 14.424 9.12501 14.2319L10.065 12.0169C10.1342 11.8542 10.2344 11.7065 10.36 11.5819L15.01 6.93193C15.1384 6.80458 15.2402 6.65308 15.3097 6.48617C15.3793 6.31926 15.4151 6.14024 15.4151 5.95943C15.4151 5.77862 15.3793 5.5996 15.3097 5.43269C15.2402 5.26578 15.1384 5.11428 15.01 4.98693L11.815 1.78193Z" fill="#F6F6F8"/>
</svg>
