<svg width="43" height="40" viewBox="0 0 43 40" fill="none" xmlns="http://www.w3.org/2000/svg">
<path fill-rule="evenodd" clip-rule="evenodd" d="M0.17514 4.58514H5.38314V20.0931H0.175148V39.7491H8.78654C15.2612 39.7491 19.6946 36.6288 20.645 31.8906C21.9218 36.6622 26.1886 39.8159 31.2385 39.8159C37.2929 39.8159 42.1608 35.2827 42.1608 28.8631C42.1608 25.2072 40.5919 22.173 38.1171 20.238C40.5389 18.2917 42.0766 15.2795 42.0766 11.6715C42.0766 5.33122 37.3579 0.860648 31.3791 0.751207V0.749146H0.17514V4.58514ZM22.6642 4.58514H10.1711V20.1421C15.4666 20.5238 19.1803 23.1108 20.4006 26.9895C20.8404 24.213 22.251 21.9013 24.2573 20.3095C21.7667 18.3658 20.1711 15.324 20.1711 11.6715C20.1711 8.87407 21.107 6.44062 22.6642 4.58514ZM5.77419 35.6051V24.1811H8.42637C12.6502 24.1811 15.1387 26.3091 15.1387 29.9211C15.1387 33.5331 12.6502 35.6051 8.42637 35.6051H5.77419ZM25.4954 11.6715C25.4954 7.86845 27.6859 5.46492 31.1543 5.46492C34.5618 5.46492 36.7828 7.86845 36.7828 11.6715C36.7828 15.4137 34.5618 17.8781 31.1543 17.8781C27.6859 17.8781 25.4954 15.4137 25.4954 11.6715ZM25.5795 28.8631C25.5795 25.0601 27.7701 22.6566 31.2385 22.6566C34.646 22.6566 36.867 25.0601 36.867 28.8631C36.867 32.6053 34.646 35.0697 31.2385 35.0697C27.7701 35.0697 25.5795 32.6053 25.5795 28.8631Z" fill="#1DAFDE"/>
</svg>
