<svg width="26" height="26" viewBox="0 0 26 26" fill="none" xmlns="http://www.w3.org/2000/svg">
<path fill-rule="evenodd" clip-rule="evenodd" d="M11.9275 24.4933C11.9275 25.3218 12.5991 25.9933 13.4275 25.9933C14.256 25.9933 14.9275 25.3218 14.9275 24.4933V14.9933H24.4275C25.256 14.9933 25.9275 14.3218 25.9275 13.4933C25.9275 12.6649 25.256 11.9933 24.4275 11.9933H14.9275V2.49333C14.9275 1.6649 14.256 0.993332 13.4275 0.993332C12.5991 0.993332 11.9275 1.6649 11.9275 2.49333V11.9933H2.42754C1.59911 11.9933 0.927536 12.6649 0.927536 13.4933C0.927536 14.3218 1.59911 14.9933 2.42754 14.9933H11.9275V24.4933Z" fill="white"/>
</svg>
