<svg width="19" height="19" viewBox="0 0 19 19" fill="none" xmlns="http://www.w3.org/2000/svg">
<g clip-path="url(#clip0_263_1533)">
<path d="M5.16798 8.18213H1.73941C1.42381 8.18213 1.16797 8.43797 1.16797 8.75357V17.325C1.16797 17.6406 1.42381 17.8964 1.73941 17.8964H5.16798C5.48358 17.8964 5.73942 17.6406 5.73942 17.325V8.75357C5.73938 8.43797 5.48355 8.18213 5.16798 8.18213ZM4.59654 16.7536H2.31081V9.32501H4.59654V16.7536Z" fill="#3A3A3C"/>
<path d="M10.8823 1.89648H7.45376C7.13816 1.89648 6.88232 2.15232 6.88232 2.46792V17.325C6.88232 17.6406 7.13816 17.8965 7.45376 17.8965H10.8823C11.1979 17.8965 11.4538 17.6406 11.4538 17.325V2.46792C11.4538 2.15232 11.1979 1.89648 10.8823 1.89648ZM10.3109 16.7536H8.0252V3.03933H10.3109V16.7536Z" fill="#3A3A3C"/>
<path d="M16.5964 6.4679H13.1679C12.8523 6.4679 12.5964 6.72373 12.5964 7.03933V17.325C12.5964 17.6406 12.8523 17.8965 13.1679 17.8965H16.5964C16.912 17.8965 17.1679 17.6406 17.1679 17.325V7.03933C17.1679 6.72373 16.912 6.4679 16.5964 6.4679ZM16.025 16.7536H13.7393V7.61077H16.025V16.7536Z" fill="#3A3A3C"/>
</g>
<defs>
<clipPath id="clip0_263_1533">
<rect width="16" height="16" fill="white" transform="translate(1.16797 1.89648)"/>
</clipPath>
</defs>
</svg>
