<svg width="10" height="17" viewBox="0 0 10 17" fill="none" xmlns="http://www.w3.org/2000/svg">
<path fill-rule="evenodd" clip-rule="evenodd" d="M8.54292 16.4965C8.36566 16.4965 8.19013 16.4616 8.02641 16.3937C7.86269 16.3257 7.71401 16.2261 7.58892 16.1005L0.838921 9.35046C0.713515 9.2251 0.614036 9.07625 0.546165 8.91244C0.478293 8.74862 0.443359 8.57303 0.443359 8.39571C0.443359 8.21839 0.478293 8.0428 0.546165 7.87899C0.614036 7.71517 0.713515 7.56633 0.838921 7.44096L7.58892 0.690961C7.7133 0.561236 7.86233 0.457652 8.02727 0.386283C8.19221 0.314913 8.36974 0.277195 8.54945 0.27534C8.72916 0.273486 8.90743 0.307532 9.0738 0.375483C9.24018 0.443433 9.39132 0.54392 9.51835 0.67105C9.64538 0.79818 9.74575 0.949394 9.81357 1.11582C9.88138 1.28226 9.91529 1.46055 9.9133 1.64026C9.9113 1.81997 9.87344 1.99747 9.80194 2.16235C9.73044 2.32724 9.62674 2.47618 9.49692 2.60046L3.70242 8.39646L9.49692 14.191C9.686 14.3797 9.81483 14.6202 9.86712 14.8822C9.91941 15.1442 9.8928 15.4158 9.79066 15.6626C9.68851 15.9095 9.51543 16.1205 9.29332 16.2689C9.07121 16.4173 8.81006 16.4965 8.54292 16.4965Z" fill="#3A3A3C"/>
</svg>
