<svg width="16" height="17" viewBox="0 0 16 17" fill="none" xmlns="http://www.w3.org/2000/svg">
<path fill-rule="evenodd" clip-rule="evenodd" d="M7.49336 3.70207C7.49336 3.16339 7.27937 2.64677 6.89846 2.26586C6.51755 1.88495 6.00093 1.67096 5.46225 1.67096H2.92003C2.38134 1.67096 1.86472 1.88495 1.48381 2.26586C1.10291 2.64677 0.888916 3.16339 0.888916 3.70207V6.23985C0.888916 6.77853 1.10291 7.29515 1.48381 7.67606C1.86472 8.05697 2.38134 8.27096 2.92003 8.27096H6.47558C6.74551 8.27096 7.00439 8.16373 7.19526 7.97286C7.38613 7.78199 7.49336 7.52311 7.49336 7.25318V3.69763V3.70207Z" fill="#F6F6F8"/>
<path fill-rule="evenodd" clip-rule="evenodd" d="M8.50671 3.70189C8.50671 3.16321 8.72071 2.64659 9.10161 2.26568C9.48252 1.88477 9.99914 1.67078 10.5378 1.67078H13.0756C13.3427 1.6702 13.6073 1.7223 13.8542 1.82411C14.1012 1.92592 14.3256 2.07544 14.5147 2.26411C14.7038 2.45277 14.8538 2.67688 14.9561 2.92359C15.0585 3.17031 15.1112 3.43479 15.1112 3.70189V6.23967C15.1112 6.77835 14.8972 7.29498 14.5163 7.67588C14.1354 8.05679 13.6187 8.27078 13.08 8.27078H9.52449C9.25456 8.27078 8.99569 8.16355 8.80481 7.97268C8.61394 7.78181 8.50671 7.52293 8.50671 7.253V3.69745V3.70189Z" fill="#F6F6F8"/>
<path fill-rule="evenodd" clip-rule="evenodd" d="M7.49336 13.8619C7.49336 14.4006 7.27937 14.9172 6.89846 15.2981C6.51755 15.679 6.00093 15.893 5.46225 15.893H2.92003C2.38134 15.893 1.86472 15.679 1.48381 15.2981C1.10291 14.9172 0.888916 14.4006 0.888916 13.8619V11.3197C0.888916 10.781 1.10291 10.2644 1.48381 9.88347C1.86472 9.50257 2.38134 9.28857 2.92003 9.28857H6.47558C6.74551 9.28857 7.00439 9.3958 7.19526 9.58668C7.38613 9.77755 7.49336 10.0364 7.49336 10.3064V13.8619Z" fill="#F6F6F8"/>
<path fill-rule="evenodd" clip-rule="evenodd" d="M8.50671 13.8619C8.50671 14.4006 8.72071 14.9172 9.10161 15.2981C9.48252 15.679 9.99914 15.893 10.5378 15.893H13.0756C13.3427 15.8936 13.6073 15.8415 13.8542 15.7397C14.1012 15.6379 14.3256 15.4884 14.5147 15.2997C14.7038 15.111 14.8538 14.8869 14.9561 14.6402C15.0585 14.3935 15.1112 14.129 15.1112 13.8619V11.3197C15.1112 10.781 14.8972 10.2644 14.5163 9.88347C14.1354 9.50257 13.6187 9.28857 13.08 9.28857H9.52449C9.25456 9.28857 8.99569 9.3958 8.80481 9.58668C8.61394 9.77755 8.50671 10.0364 8.50671 10.3064V13.8619Z" fill="#F6F6F8"/>
</svg>
