<svg width="39" height="39" viewBox="0 0 39 39" fill="none" xmlns="http://www.w3.org/2000/svg">
<path d="M26.365 8.8268L28.7025 5.71014C28.8046 5.57395 28.8668 5.41201 28.8821 5.24246C28.8974 5.07291 28.8651 4.90245 28.789 4.75019C28.7129 4.59793 28.5959 4.46987 28.451 4.38037C28.3062 4.29087 28.1394 4.24347 27.9691 4.24347H16.9691C16.9691 4.00035 16.8725 3.7672 16.7006 3.59529C16.5287 3.42338 16.2956 3.3268 16.0525 3.3268C15.8093 3.3268 15.5762 3.42338 15.4043 3.59529C15.2324 3.7672 15.1358 4.00035 15.1358 4.24347V19.8268H14.2191C13.976 19.8268 13.7429 19.9234 13.5709 20.0953C13.399 20.2672 13.3025 20.5004 13.3025 20.7435C13.3025 20.9866 13.399 21.2197 13.5709 21.3917C13.7429 21.5636 13.976 21.6601 14.2191 21.6601H17.8858C18.1289 21.6601 18.3621 21.5636 18.534 21.3917C18.7059 21.2197 18.8025 20.9866 18.8025 20.7435C18.8025 20.5004 18.7059 20.2672 18.534 20.0953C18.3621 19.9234 18.1289 19.8268 17.8858 19.8268H16.9691V13.4101H27.9691C28.1394 13.4101 28.3062 13.3627 28.451 13.2732C28.5959 13.1837 28.7129 13.0557 28.789 12.9034C28.8651 12.7512 28.8974 12.5807 28.8821 12.4111C28.8668 12.2416 28.8046 12.0797 28.7025 11.9435L26.365 8.8268ZM24.4858 9.3768L26.1358 11.5768H16.9691V6.0768H26.1358L24.4858 8.2768C24.3666 8.43541 24.3022 8.62843 24.3022 8.8268C24.3022 9.02518 24.3666 9.21819 24.4858 9.3768Z" fill="#AEAEB2"/>
<path d="M15.6158 31.9078H18.1779V28.9728H12.3008V31.9078H14.8561V33.0128H11.2787V33.6413H19.1931V33.0128H15.6158V31.9078ZM17.4183 29.5874V31.2863H13.0536V29.5874H17.4183ZM17.439 35.1675V37.2877H18.2125V34.5529H12.1558V35.1675H17.439ZM25.8981 33.5169H27.3898V32.8816H26.0293V30.0501H27.4106V29.4147H20.9257V30.0501H22.3001V32.8816H20.9396V33.5169H22.4382V35.5888H20.2213V36.2241H28.1702V35.5888H25.8981V33.5169ZM25.2766 30.0501V32.8816H23.0597V30.0501H25.2766ZM25.1315 33.5169V35.5888H23.2048V33.5169H25.1315Z" fill="#AEAEB2"/>
</svg>
