<svg width="39" height="39" viewBox="0 0 39 39" fill="none" xmlns="http://www.w3.org/2000/svg">
<g clip-path="url(#clip0_191_1155)">
<path d="M27.9003 2.49347H11.6394C10.4527 2.49347 9.48723 3.37116 9.48723 4.44999V5.97175H8.76987C8.37365 5.97175 8.05246 6.26374 8.05246 6.6239C8.05246 6.98406 8.37365 7.27609 8.76987 7.27609H9.48727V9.8848H8.76987C8.37365 9.88476 8.05246 10.1768 8.05246 10.5369C8.05246 10.8971 8.37365 11.1891 8.76987 11.1891H9.48727V13.7978H8.76987C8.37365 13.7978 8.05246 14.0898 8.05246 14.45C8.05246 14.8101 8.37365 15.1022 8.76987 15.1022H9.48727V17.7109H8.76987C8.37365 17.7109 8.05246 18.0028 8.05246 18.363C8.05246 18.7232 8.37365 19.0152 8.76987 19.0152H9.48727V20.5369C9.48723 21.6158 10.4527 22.4935 11.6394 22.4935H27.9003C29.087 22.4935 30.0525 21.6158 30.0525 20.5369V4.44999C30.0525 3.37116 29.087 2.49347 27.9003 2.49347ZM13.7916 21.1891H11.6394C11.2438 21.1891 10.922 20.8966 10.922 20.5369V19.0152H11.6394C12.0356 19.0152 12.3568 18.7232 12.3568 18.363C12.3568 18.0028 12.0356 17.7109 11.6394 17.7109H10.922V15.1021H11.6394C12.0356 15.1021 12.3569 14.8101 12.3569 14.45C12.3569 14.0898 12.0357 13.7978 11.6394 13.7978H10.922V11.1891H11.6394C12.0356 11.1891 12.3569 10.8971 12.3569 10.5369C12.3569 10.1767 12.0357 9.88468 11.6394 9.88468H10.922V7.27597H11.6394C12.0356 7.27597 12.3569 6.98398 12.3569 6.62378C12.3569 6.26359 12.0357 5.97159 11.6394 5.97159H10.922V4.44999C10.922 4.09038 11.2439 3.79781 11.6394 3.79781H13.7916V21.1891H13.7916ZM28.6177 20.5369C28.6177 20.8966 28.2959 21.1891 27.9003 21.1891H15.2264V3.79781H27.9003C28.2959 3.79781 28.6177 4.09038 28.6177 4.44999V20.5369Z" fill="#AEAEB2"/>
<path d="M26.3795 11.2309C25.8206 10.6661 25.0468 10.3551 24.2009 10.3551C23.3 10.3551 22.515 10.7167 21.922 11.4028C21.329 10.7167 20.5441 10.3551 19.6432 10.3551C18.7972 10.3551 18.0235 10.6661 17.4646 11.2309C16.9374 11.7636 16.647 12.4741 16.647 13.2314C16.647 14.8644 18.0146 15.8723 19.9073 17.2673C20.3736 17.6109 20.9021 18.0005 21.4552 18.4314C21.5896 18.536 21.7558 18.5884 21.922 18.5884C22.0883 18.5884 22.2546 18.536 22.3889 18.4314C22.942 18.0005 23.4705 17.6109 23.9368 17.2673C25.8296 15.8723 27.1971 14.8644 27.1971 13.2314C27.1971 12.4741 26.9067 11.7636 26.3795 11.2309ZM23.0332 16.2541C22.6917 16.5057 22.3173 16.7817 21.922 17.082C21.5268 16.7817 21.1524 16.5058 20.8109 16.2541C18.9678 14.8957 18.0818 14.1998 18.0818 13.2314C18.0818 12.4694 18.629 11.6595 19.6432 11.6595C20.7974 11.6595 21.2128 12.9017 21.2321 12.9617C21.3199 13.2418 21.6009 13.4369 21.9216 13.4369C22.2433 13.4369 22.5252 13.2438 22.612 12.9622C22.629 12.9091 23.0434 11.6595 24.201 11.6595C25.2152 11.6595 25.7624 12.4694 25.7624 13.2314C25.7623 14.1997 24.8763 14.8957 23.0332 16.2541Z" fill="#AEAEB2"/>
<path d="M26.4655 5.97175H17.3785C16.9824 5.97175 16.6611 6.26374 16.6611 6.62394C16.6611 6.98413 16.9823 7.27613 17.3785 7.27613H26.4655C26.8617 7.27613 27.1829 6.98413 27.1829 6.62394C27.1829 6.26374 26.8617 5.97175 26.4655 5.97175Z" fill="#AEAEB2"/>
</g>
<path d="M16.9657 37.2877H17.7323V28.6067H16.9657V37.2877ZM13.8994 29.6772V28.6136H13.1328V29.6772H10.8469V30.2987H16.1646V29.6772H13.8994ZM13.8994 33.9831C14.9318 33.8657 15.6052 33.2718 15.6052 32.412C15.6052 31.4313 14.7557 30.796 13.4988 30.796C12.2488 30.796 11.4132 31.4313 11.4201 32.412C11.4132 33.2821 12.09 33.8761 13.1328 33.99V34.9327C12.2523 34.9603 11.4028 34.9672 10.6604 34.9741L10.7778 35.6233C12.387 35.6233 14.514 35.5957 16.4546 35.2849L16.3925 34.6979C15.5914 34.8015 14.7419 34.8671 13.8994 34.9051V33.9831ZM12.1383 32.412C12.1314 31.8042 12.6977 31.3968 13.4988 31.3968C14.3137 31.3968 14.8731 31.8042 14.8731 32.412C14.8731 33.0128 14.3137 33.4065 13.4988 33.3995C12.6977 33.4065 12.1314 33.0128 12.1383 32.412ZM25.7494 30.3471C25.7425 31.3899 25.7425 32.6053 25.4179 34.2628L26.1914 34.3526C26.5091 32.6053 26.5091 31.4175 26.516 30.3471V29.4838H20.3972V30.1192H25.7494V30.3471ZM23.4152 32.3153H22.6555V35.4161H19.5547V36.0584H27.469V35.4161H23.4152V32.3153Z" fill="#AEAEB2"/>
<defs>
<clipPath id="clip0_191_1155">
<rect width="22" height="20" fill="white" transform="translate(8.05246 2.49347)"/>
</clipPath>
</defs>
</svg>
