<svg width="11" height="10" viewBox="0 0 11 10" fill="none" xmlns="http://www.w3.org/2000/svg">
<path d="M8.92728 5.0042C8.48728 4.96419 8.04728 4.6442 8.20728 4.00419C8.40728 3.08419 9.20728 1.9642 10.0073 1.48419C10.6873 1.0042 10.2473 0.0841958 9.48728 0.404196C7.08728 1.84419 6.00728 4.0842 6.00728 6.3242C6.00728 8.3642 7.16728 9.3242 8.44728 9.3242C9.76728 9.3242 10.6873 8.4042 10.6873 7.16419C10.6873 6.04419 10.2473 5.32419 8.92728 5.0042ZM3.12728 5.0042C2.64728 4.96419 2.24728 4.6442 2.40728 4.00419C2.56728 3.08419 3.36728 1.9642 4.16728 1.48419C4.84728 1.0042 4.44728 0.0841958 3.68728 0.404196C1.28728 1.84419 0.167282 4.0842 0.167282 6.3242C0.167282 8.3642 1.32728 9.3242 2.60728 9.3242C3.88728 9.3242 4.88728 8.4042 4.88728 7.16419C4.88728 6.04419 4.40728 5.32419 3.12728 5.0042Z" fill="#8E8E93"/>
</svg>
