<svg width="12" height="10" viewBox="0 0 12 10" fill="none" xmlns="http://www.w3.org/2000/svg">
<path d="M1.27276 8.88C1.43276 9.2 1.71276 9.27999 2.11276 9.07999C4.47276 7.63999 5.59276 5.28 5.59276 3.03999C5.59276 1.11999 4.43276 0.119995 3.15276 0.119995C1.83276 0.119995 0.912758 1.11999 0.912758 2.23999C0.912758 3.39999 1.27276 4.11999 2.67276 4.43999C3.11276 4.56 3.51276 4.84 3.39276 5.43999C3.11276 6.4 2.31276 7.52 1.63276 7.99999C1.27276 8.24 1.15276 8.51999 1.27276 8.88ZM9.31276 5.43999C9.03276 6.4 8.19276 7.52 7.51276 7.99999C6.83276 8.48 7.23276 9.43999 8.03276 9.07999C10.3928 7.63999 11.5128 5.28 11.5128 3.03999C11.5128 1.11999 10.3528 0.119995 9.07276 0.119995C7.67276 0.119995 6.83276 1.11999 6.83276 2.23999C6.83276 3.39999 7.19276 4.11999 8.59276 4.43999C8.95276 4.56 9.35276 4.84 9.31276 5.43999Z" fill="#8E8E93"/>
</svg>
