<svg width="29" height="29" viewBox="0 0 29 29" fill="none" xmlns="http://www.w3.org/2000/svg">
<g clip-path="url(#clip0_60_4484)">
<path d="M19.8847 28.1791H9.34088C8.92717 28.1791 8.5782 27.871 8.52691 27.4605L7.64824 20.4313C7.61904 20.1978 7.69156 19.9631 7.84725 19.7867C8.00295 19.6103 8.22695 19.5093 8.46221 19.5093H20.7633C20.9986 19.5093 21.2225 19.6103 21.3783 19.7867C21.534 19.9631 21.6065 20.1978 21.5773 20.4313L20.6986 27.4605C20.6474 27.871 20.2983 28.1791 19.8847 28.1791Z" fill="#BA5F19"/>
<path d="M20.7633 19.5093H14.6128V28.1791H19.8847C20.2983 28.1791 20.6474 27.871 20.6987 27.4605L21.5773 20.4313C21.6065 20.1978 21.534 19.9631 21.3783 19.7867C21.2225 19.6103 20.9986 19.5093 20.7633 19.5093Z" fill="#8D4813"/>
<path d="M22.5206 21.1499H6.70494C6.25191 21.1499 5.88463 20.7826 5.88463 20.3296V16.815C5.88463 16.362 6.25191 15.9947 6.70494 15.9947H22.5206C22.9736 15.9947 23.3409 16.362 23.3409 16.815V20.3296C23.3409 20.7826 22.9736 21.1499 22.5206 21.1499Z" fill="#ECAD80"/>
<path d="M22.5206 15.9947H14.6128V21.1499H22.5206C22.9736 21.1499 23.3409 20.7826 23.3409 20.3296V16.815C23.3409 16.362 22.9736 15.9947 22.5206 15.9947Z" fill="#E48844"/>
</g>
<defs>
<clipPath id="clip0_60_4484">
<rect width="28" height="28" fill="white" transform="translate(0.612755 0.179077)"/>
</clipPath>
</defs>
</svg>
