<svg width="25" height="25" viewBox="0 0 25 25" fill="none" xmlns="http://www.w3.org/2000/svg">
<g clip-path="url(#clip0_202_2585)">
<path fill-rule="evenodd" clip-rule="evenodd" d="M4.52057 6.49207C3.00768 6.49207 1.77026 7.73349 1.77026 9.24638C1.77026 10.7594 3.00768 12.0021 4.52057 12.0021C6.03345 12.0021 7.27488 10.7594 7.27488 9.24638C7.27488 7.73349 6.03345 6.49207 4.52057 6.49207ZM9.27347 7.18347C8.9224 7.21772 8.65167 7.51669 8.65203 7.86922V10.625V10.6279C8.65203 11.0054 8.96284 11.3162 9.34052 11.3162H9.34471H21.7366C22.1133 11.3149 22.4225 11.0045 22.4225 10.6277C22.4225 10.6268 22.4225 10.6259 22.4225 10.625V7.86922C22.421 7.49355 22.1122 7.18474 21.7366 7.18347H9.34471C9.32103 7.18219 9.29716 7.18219 9.27347 7.18347ZM4.52057 7.86922C5.2894 7.86922 5.89772 8.47755 5.89772 9.24638C5.89772 10.0154 5.2894 10.625 4.52057 10.625C3.75173 10.625 3.14214 10.0154 3.14214 9.24638C3.14214 8.47755 3.75173 7.86922 4.52057 7.86922ZM10.0306 8.56062H21.0506V9.93905H10.0306V8.56062ZM4.52057 13.3793C3.00768 13.3793 1.77026 14.622 1.77026 16.1349C1.77026 17.648 3.00768 18.8894 4.52057 18.8894C6.03345 18.8894 7.27488 17.648 7.27488 16.1349C7.27488 14.622 6.03345 13.3793 4.52057 13.3793ZM9.34471 14.0652C9.34325 14.0652 9.34198 14.0652 9.34052 14.0652C8.96284 14.0652 8.65203 14.3759 8.65203 14.7535V14.7577V17.5122C8.65349 17.8888 8.96376 18.198 9.34052 18.198H9.34471H21.7366C22.1122 18.1967 22.421 17.8879 22.4225 17.5122V14.7577C22.4225 14.7565 22.4225 14.755 22.4225 14.7535C22.4225 14.377 22.1133 14.0665 21.7366 14.0652H9.34471ZM4.52057 14.7577C5.2894 14.7577 5.89772 15.3661 5.89772 16.1349C5.89772 16.9039 5.2894 17.5122 4.52057 17.5122C3.75173 17.5122 3.14214 16.9039 3.14214 16.1349C3.14214 15.3661 3.75173 14.7577 4.52057 14.7577ZM10.0306 15.4437H21.0506V16.8208H10.0306V15.4437Z" fill="#AEAEB2"/>
</g>
<defs>
<clipPath id="clip0_202_2585">
<rect width="22" height="22" fill="white" transform="translate(1.0791 1.67334)"/>
</clipPath>
</defs>
</svg>
